<svg id="svg" version="1.1" xmlns="http://www.w3.org/2000/svg" xmlns:xlink="http://www.w3.org/1999/xlink" width="400" height="187.5" viewBox="0, 0, 400,187.5"><g id="svgg"><path id="path0" d="M305.658 77.802 C 305.202 78.099,303.816 78.997,302.579 79.798 C 301.341 80.600,299.770 81.623,299.088 82.072 C 298.406 82.521,297.716 82.888,297.554 82.888 C 297.392 82.888,297.206 83.056,297.141 83.262 C 297.075 83.468,296.922 83.743,296.800 83.873 C 296.538 84.153,295.359 86.507,295.358 86.751 C 295.358 86.844,295.147 87.165,294.890 87.465 C 294.632 87.764,294.421 88.131,294.421 88.280 C 294.421 88.428,294.258 88.779,294.058 89.059 C 293.859 89.339,293.643 89.780,293.578 90.039 C 293.513 90.297,293.254 90.748,293.003 91.041 C 292.751 91.333,292.546 91.689,292.546 91.831 C 292.546 91.974,292.411 92.296,292.246 92.548 C 291.950 92.999,291.968 93.030,293.346 94.464 C 296.422 97.665,298.176 99.685,298.111 99.953 C 298.048 100.215,296.565 102.517,292.235 109.079 C 291.272 110.540,290.483 111.869,290.483 112.032 C 290.483 112.602,298.287 112.465,298.911 111.885 C 299.175 111.640,302.618 109.354,306.564 106.806 C 310.509 104.257,313.737 102.097,313.737 102.006 C 313.737 101.915,312.661 100.680,311.346 99.262 C 310.030 97.844,308.448 96.137,307.829 95.468 C 307.211 94.799,306.240 93.811,305.673 93.273 C 305.105 92.734,304.500 92.052,304.326 91.756 L 304.011 91.219 306.719 87.107 C 308.209 84.845,309.551 82.925,309.702 82.840 C 309.927 82.714,309.803 82.358,309.012 80.865 C 308.481 79.863,307.846 78.643,307.602 78.153 C 307.078 77.100,306.810 77.052,305.658 77.802 M94.702 78.674 C 90.422 78.910,84.937 79.195,82.513 79.308 C 76.232 79.602,68.205 80.072,67.952 80.161 C 67.800 80.214,67.863 80.795,68.172 82.171 C 68.680 84.439,69.852 89.727,70.263 91.608 C 70.421 92.330,70.661 93.385,70.797 93.952 C 71.118 95.288,72.779 94.305,56.006 102.706 C 51.381 105.022,47.638 106.960,47.689 107.011 C 47.769 107.091,54.944 106.741,69.386 105.953 C 71.397 105.843,75.406 105.634,78.293 105.488 C 81.181 105.342,83.619 105.218,83.709 105.213 C 83.893 105.203,83.831 104.770,83.296 102.297 C 82.225 97.346,81.530 94.331,81.288 93.577 C 80.839 92.183,80.505 90.603,80.622 90.429 C 80.682 90.338,85.985 87.615,92.405 84.375 C 98.826 81.136,104.079 78.422,104.079 78.343 C 104.079 78.161,103.986 78.164,94.702 78.674 M248.440 133.098 C 249.710 133.131,251.735 133.131,252.941 133.098 C 254.147 133.066,253.108 133.039,250.633 133.039 C 248.158 133.039,247.171 133.066,248.440 133.098 M343.413 133.098 C 344.625 133.131,346.608 133.131,347.820 133.098 C 349.032 133.066,348.040 133.039,345.617 133.039 C 343.193 133.039,342.201 133.066,343.413 133.098 M53.258 133.737 C 45.812 133.857,35.160 134.592,34.883 135.004 C 34.830 135.083,34.048 135.302,33.144 135.489 C 29.275 136.293,31.087 138.082,36.193 138.501 C 37.070 138.573,37.872 138.682,37.975 138.744 C 38.078 138.805,38.247 138.861,38.350 138.867 C 38.453 138.873,39.086 138.945,39.756 139.028 C 40.427 139.110,41.228 139.206,41.538 139.241 C 47.076 139.861,83.000 139.679,84.057 139.026 C 84.174 138.954,84.570 138.870,84.938 138.840 C 87.887 138.599,91.723 137.787,92.208 137.301 C 92.475 137.034,92.383 136.970,91.211 136.607 C 90.501 136.387,89.330 135.954,88.608 135.645 C 86.226 134.625,84.737 134.382,78.012 133.912 C 76.826 133.830,73.029 133.742,69.573 133.717 C 66.118 133.692,62.743 133.659,62.072 133.643 C 61.402 133.628,57.436 133.670,53.258 133.737 " stroke="none" fill="#c2c2c2" fill-rule="evenodd"></path><path id="path1" d="M59.490 53.680 C 59.386 53.809,58.989 54.674,58.607 55.602 C 58.226 56.531,57.800 57.543,57.660 57.853 C 57.520 58.162,56.675 60.145,55.781 62.260 C 54.888 64.374,54.046 66.357,53.909 66.667 C 53.772 66.976,52.843 69.170,51.844 71.542 C 50.070 75.756,47.946 80.757,44.637 88.514 C 43.735 90.628,42.338 93.919,41.533 95.827 C 40.728 97.736,39.252 101.219,38.253 103.569 C 36.381 107.972,36.326 108.231,37.363 107.756 C 37.699 107.602,41.561 106.028,45.945 104.258 C 50.328 102.489,56.742 99.899,60.197 98.503 C 63.652 97.108,67.454 95.576,68.645 95.100 L 70.810 94.233 70.664 93.483 C 70.584 93.071,70.396 92.185,70.247 91.514 C 70.098 90.844,69.668 88.903,69.291 87.201 C 68.914 85.499,68.411 83.236,68.172 82.171 C 67.863 80.795,67.800 80.214,67.952 80.161 C 68.197 80.075,75.998 79.618,82.304 79.320 C 90.159 78.948,100.973 78.387,102.532 78.271 C 103.383 78.207,104.079 78.229,104.079 78.320 C 104.079 78.410,99.150 80.973,93.126 84.015 C 83.001 89.127,80.809 90.282,83.190 89.251 C 83.984 88.907,90.607 86.221,97.984 83.251 C 110.063 78.389,114.106 76.718,114.156 76.566 C 114.217 76.384,113.010 75.822,108.579 73.969 C 107.187 73.387,105.204 72.548,104.173 72.105 C 103.141 71.661,98.964 69.890,94.890 68.168 C 90.816 66.446,86.934 64.801,86.263 64.512 C 85.593 64.224,82.260 62.806,78.856 61.362 C 75.452 59.918,70.938 58.000,68.823 57.100 C 59.663 53.199,59.831 53.260,59.490 53.680 M154.712 71.263 C 154.712 71.331,154.395 71.402,154.008 71.421 C 152.435 71.497,151.375 71.689,150.786 72.005 C 150.573 72.119,150.398 72.168,150.398 72.115 C 150.398 72.062,150.030 72.225,149.579 72.476 C 149.128 72.728,148.718 72.893,148.668 72.843 C 148.618 72.793,148.470 72.881,148.339 73.038 C 148.209 73.195,148.007 73.328,147.891 73.332 C 147.774 73.336,147.300 73.684,146.835 74.104 C 146.371 74.524,146.118 74.799,146.273 74.716 C 146.428 74.632,146.259 74.864,145.898 75.230 C 144.997 76.145,144.773 76.451,144.773 76.765 C 144.773 76.913,144.641 77.085,144.479 77.147 C 144.318 77.209,144.239 77.344,144.303 77.448 C 144.367 77.552,144.325 77.637,144.210 77.637 C 144.095 77.637,144.053 77.722,144.116 77.825 C 144.180 77.928,144.161 78.012,144.074 78.012 C 143.987 78.012,143.902 78.160,143.886 78.340 C 143.869 78.521,143.693 79.259,143.494 79.981 C 143.104 81.394,142.976 84.773,143.290 85.359 C 143.385 85.536,143.480 85.896,143.502 86.160 C 143.524 86.423,143.601 86.639,143.673 86.639 C 143.746 86.639,143.862 86.897,143.932 87.214 C 144.001 87.530,144.176 87.834,144.320 87.890 C 144.465 87.945,144.536 88.066,144.479 88.158 C 144.422 88.251,144.456 88.326,144.554 88.326 C 144.652 88.326,144.784 88.535,144.848 88.790 C 144.912 89.045,145.132 89.343,145.337 89.453 C 145.542 89.562,145.710 89.770,145.710 89.913 C 145.710 90.056,146.113 90.581,146.605 91.078 C 147.098 91.576,147.505 92.068,147.510 92.171 C 147.514 92.274,147.816 92.569,148.180 92.827 C 148.544 93.085,149.289 93.718,149.835 94.233 C 150.381 94.749,151.121 95.449,151.480 95.788 C 151.839 96.127,152.489 96.649,152.925 96.949 C 156.205 99.206,152.971 101.087,147.649 100.018 C 146.944 99.877,145.945 99.676,145.429 99.572 C 144.913 99.469,144.257 99.353,143.971 99.316 L 143.451 99.248 143.465 105.293 L 143.479 111.339 144.267 111.588 C 145.267 111.904,145.053 111.860,146.444 112.035 C 149.896 112.469,157.614 112.161,160.056 111.492 C 160.159 111.463,160.298 111.451,160.365 111.463 C 160.431 111.476,160.656 111.332,160.864 111.144 C 161.072 110.956,161.368 110.783,161.521 110.761 C 161.674 110.738,161.914 110.628,162.053 110.516 C 162.193 110.404,162.686 110.122,163.150 109.889 C 164.251 109.336,165.823 107.718,166.469 106.473 C 166.750 105.930,167.090 105.374,167.222 105.238 C 167.355 105.102,167.513 104.764,167.574 104.488 C 167.635 104.211,167.776 103.690,167.887 103.329 C 168.438 101.532,168.356 98.400,167.707 96.484 C 167.533 95.968,167.372 95.443,167.350 95.316 C 167.328 95.190,167.134 94.862,166.918 94.588 C 166.703 94.314,166.526 93.982,166.526 93.850 C 166.526 93.541,165.569 92.077,165.368 92.077 C 165.283 92.077,165.213 91.948,165.213 91.790 C 165.213 91.632,165.087 91.454,164.933 91.395 C 164.779 91.336,164.697 91.216,164.752 91.128 C 164.806 91.040,164.640 90.830,164.383 90.662 C 164.126 90.493,163.864 90.194,163.802 89.997 C 163.739 89.800,163.616 89.639,163.528 89.639 C 163.440 89.639,163.036 89.311,162.631 88.910 C 162.226 88.508,161.354 87.814,160.694 87.365 C 156.570 84.566,156.765 83.268,161.318 83.206 L 163.994 83.169 164.044 77.931 C 164.093 72.770,164.055 72.384,163.481 72.267 C 163.351 72.240,162.780 72.089,162.213 71.931 C 161.646 71.773,160.549 71.594,159.775 71.531 C 159.001 71.469,158.242 71.367,158.087 71.305 C 157.698 71.147,154.712 71.110,154.712 71.263 M171.768 71.346 C 171.363 71.750,171.545 111.918,171.952 112.136 C 172.424 112.389,183.573 112.399,184.235 112.147 L 184.716 111.964 184.716 91.613 C 184.716 75.459,184.668 71.260,184.482 71.256 C 179.648 71.156,171.903 71.210,171.768 71.346 M208.007 71.287 C 207.935 71.353,207.370 71.459,206.751 71.523 C 206.132 71.586,205.120 71.805,204.501 72.009 C 203.882 72.213,203.207 72.411,203.000 72.448 C 202.372 72.563,201.594 72.930,201.594 73.111 C 201.594 73.255,200.918 73.533,200.431 73.590 C 200.359 73.598,200.195 73.711,200.066 73.840 C 199.937 73.969,199.743 74.074,199.634 74.075 C 199.526 74.075,199.142 74.333,198.781 74.648 C 198.420 74.963,197.893 75.345,197.609 75.496 C 197.325 75.648,197.093 75.854,197.093 75.954 C 197.093 76.055,196.967 76.137,196.812 76.137 C 196.657 76.137,196.531 76.278,196.531 76.449 C 196.531 76.621,196.485 76.716,196.429 76.660 C 196.317 76.548,194.840 77.904,194.810 78.145 C 194.800 78.227,194.572 78.483,194.302 78.715 C 194.032 78.947,193.871 79.137,193.943 79.137 C 194.016 79.137,193.871 79.358,193.621 79.627 C 193.371 79.896,193.117 80.276,193.055 80.471 C 192.993 80.666,192.864 80.825,192.767 80.825 C 192.671 80.825,192.593 80.941,192.593 81.083 C 192.593 81.226,192.467 81.446,192.313 81.574 C 192.160 81.701,192.080 81.880,192.137 81.972 C 192.193 82.063,192.153 82.138,192.047 82.138 C 191.941 82.138,191.903 82.264,191.962 82.419 C 192.022 82.574,191.977 82.700,191.863 82.700 C 191.748 82.700,191.655 82.844,191.655 83.019 C 191.655 83.193,191.450 83.637,191.198 84.003 C 190.947 84.370,190.687 85.049,190.620 85.513 C 190.553 85.977,190.421 86.449,190.328 86.562 C 190.234 86.675,190.208 86.817,190.269 86.878 C 190.330 86.939,190.309 87.100,190.222 87.236 C 189.889 87.754,189.715 93.184,189.982 94.702 C 190.081 95.270,190.209 96.071,190.265 96.484 C 190.321 96.896,190.463 97.529,190.581 97.890 C 190.698 98.251,190.777 98.610,190.756 98.687 C 190.735 98.765,190.807 98.828,190.916 98.828 C 191.025 98.828,191.066 98.906,191.007 99.003 C 190.947 99.099,190.986 99.231,191.092 99.297 C 191.199 99.363,191.237 99.495,191.178 99.591 C 191.119 99.687,191.165 99.766,191.280 99.766 C 191.395 99.766,191.441 99.844,191.382 99.940 C 191.322 100.036,191.365 100.171,191.476 100.240 C 191.657 100.351,191.948 100.939,192.008 101.313 C 192.020 101.390,192.202 101.625,192.412 101.835 C 192.622 102.045,192.744 102.298,192.682 102.398 C 192.621 102.497,192.665 102.579,192.780 102.579 C 192.895 102.579,192.946 102.650,192.892 102.737 C 192.838 102.825,193.044 103.136,193.349 103.429 C 193.655 103.722,193.905 104.030,193.905 104.114 C 193.905 104.288,194.055 104.461,195.664 106.142 C 196.305 106.812,197.142 107.571,197.523 107.829 C 197.904 108.087,198.216 108.361,198.217 108.439 C 198.218 108.516,198.382 108.579,198.583 108.579 C 198.783 108.579,199.058 108.734,199.192 108.923 C 199.482 109.328,200.469 109.999,200.469 109.791 C 200.469 109.711,200.630 109.793,200.827 109.971 C 201.157 110.269,201.519 110.403,202.096 110.440 C 202.218 110.448,202.447 110.584,202.605 110.743 C 202.764 110.901,202.917 111.022,202.947 111.012 C 202.998 110.994,203.440 111.129,204.032 111.343 C 204.187 111.399,204.440 111.463,204.594 111.486 C 204.749 111.509,205.418 111.672,206.080 111.849 C 207.853 112.321,213.497 112.269,214.816 111.767 C 215.087 111.664,215.542 111.580,215.827 111.580 C 216.113 111.580,216.409 111.518,216.485 111.442 C 216.561 111.366,216.722 111.298,216.844 111.291 C 217.325 111.264,218.097 110.967,218.097 110.809 C 218.097 110.718,218.192 110.642,218.308 110.642 C 218.659 110.642,220.992 109.453,221.155 109.191 C 221.239 109.057,221.387 108.996,221.485 109.056 C 221.582 109.117,221.713 109.034,221.775 108.873 C 221.837 108.711,221.966 108.579,222.063 108.579 C 222.239 108.579,222.506 108.388,223.173 107.782 C 223.372 107.602,223.556 107.472,223.582 107.493 C 223.608 107.514,223.819 107.368,224.051 107.170 C 224.531 106.758,224.611 105.995,224.191 105.834 C 224.037 105.775,223.910 105.615,223.910 105.478 C 223.910 105.341,223.741 105.176,223.535 105.110 C 223.329 105.045,223.160 104.870,223.160 104.723 C 223.160 104.576,222.865 104.128,222.504 103.728 C 222.143 103.329,221.847 102.907,221.847 102.790 C 221.847 102.674,221.766 102.579,221.666 102.579 C 221.566 102.579,221.123 102.094,220.681 101.502 C 220.239 100.910,219.730 100.256,219.548 100.049 C 218.820 99.215,218.284 98.483,218.284 98.320 C 218.284 97.569,216.958 97.223,216.296 97.802 C 215.429 98.558,215.205 98.734,215.101 98.740 C 215.047 98.743,214.665 98.969,214.252 99.243 C 212.202 100.603,207.764 100.601,206.293 99.239 C 206.104 99.064,205.476 98.590,204.897 98.186 C 204.318 97.781,203.844 97.367,203.844 97.266 C 203.844 97.165,203.612 96.779,203.329 96.409 C 201.526 94.058,201.427 89.570,203.130 87.362 C 203.420 86.986,203.657 86.595,203.657 86.493 C 203.657 86.391,204.015 86.003,204.454 85.632 C 204.892 85.260,205.420 84.806,205.626 84.622 C 205.832 84.439,206.254 84.174,206.564 84.035 C 206.873 83.896,207.267 83.711,207.440 83.623 C 208.849 82.913,212.193 83.132,214.152 84.063 C 214.950 84.442,215.306 84.701,216.344 85.654 C 216.597 85.886,216.919 86.076,217.060 86.076 C 217.302 86.076,218.472 85.038,218.472 84.823 C 218.472 84.769,219.522 83.404,220.805 81.790 C 222.088 80.176,223.291 78.656,223.477 78.412 C 223.664 78.168,223.964 77.809,224.144 77.615 C 224.731 76.984,224.510 76.657,222.445 75.105 C 222.308 75.002,222.060 74.775,221.894 74.599 C 221.728 74.424,221.539 74.314,221.474 74.354 C 221.408 74.395,221.112 74.219,220.816 73.964 C 220.519 73.709,220.060 73.450,219.796 73.387 C 219.532 73.325,219.189 73.164,219.034 73.031 C 218.880 72.897,218.711 72.796,218.659 72.806 C 218.608 72.816,218.270 72.696,217.909 72.540 C 216.634 71.988,215.363 71.654,214.065 71.529 C 213.343 71.459,212.680 71.360,212.592 71.309 C 212.353 71.169,208.159 71.149,208.007 71.287 M227.006 71.417 C 226.871 71.770,226.886 111.674,227.022 112.028 C 227.195 112.479,250.626 112.487,250.799 112.036 C 250.863 111.871,250.914 109.423,250.914 106.595 L 250.914 101.453 245.101 101.453 L 239.287 101.453 239.287 99.300 L 239.287 97.146 244.210 97.096 L 249.133 97.046 249.182 91.749 L 249.232 86.451 244.260 86.451 L 239.287 86.451 239.287 84.201 L 239.287 81.950 245.101 81.950 L 250.914 81.950 250.914 76.711 C 250.914 73.731,250.840 71.425,250.742 71.364 C 250.330 71.110,227.104 71.162,227.006 71.417 M255.681 71.246 C 255.467 71.459,255.612 111.890,255.827 112.105 C 255.993 112.271,257.689 112.330,262.294 112.330 L 268.535 112.330 268.640 111.908 C 268.698 111.676,268.721 109.608,268.690 107.313 L 268.636 103.141 270.699 103.115 C 273.074 103.086,275.012 102.929,275.012 102.766 C 275.012 102.733,275.339 102.649,276.137 102.477 C 277.195 102.248,277.262 102.232,277.309 102.194 C 277.335 102.174,277.419 102.141,277.496 102.122 C 277.918 102.017,279.541 101.146,279.794 100.889 C 279.845 100.836,280.214 100.625,280.613 100.420 C 281.011 100.215,281.464 99.857,281.619 99.625 C 281.773 99.393,282.009 99.203,282.142 99.203 C 282.275 99.203,282.666 98.856,283.011 98.431 C 283.356 98.006,283.750 97.542,283.886 97.399 C 284.022 97.257,284.070 97.140,283.991 97.140 C 283.913 97.140,284.019 96.982,284.227 96.788 C 284.435 96.594,284.714 96.172,284.848 95.850 C 284.981 95.528,285.169 95.265,285.266 95.265 C 285.363 95.265,285.390 95.180,285.326 95.077 C 285.262 94.974,285.304 94.890,285.420 94.890 C 285.535 94.890,285.581 94.811,285.521 94.715 C 285.462 94.619,285.504 94.484,285.616 94.416 C 285.833 94.282,286.213 93.474,286.276 93.015 C 286.298 92.860,286.457 92.325,286.630 91.826 C 286.804 91.327,286.951 90.652,286.958 90.326 C 286.964 90.000,287.018 89.650,287.077 89.548 C 287.235 89.276,287.239 85.077,287.082 84.854 C 287.008 84.750,286.904 84.328,286.852 83.917 C 286.757 83.181,286.601 82.419,286.545 82.419 C 286.519 82.419,286.460 82.188,286.295 81.454 C 286.269 81.335,286.142 81.112,286.014 80.957 C 285.885 80.802,285.743 80.484,285.698 80.249 C 285.653 80.014,285.537 79.773,285.441 79.713 C 285.345 79.654,285.069 79.217,284.827 78.741 C 284.586 78.266,284.110 77.644,283.771 77.359 C 283.431 77.074,283.201 76.793,283.258 76.736 C 283.389 76.604,281.511 74.824,281.241 74.824 C 281.133 74.824,281.097 74.771,281.163 74.705 C 281.301 74.568,279.677 73.450,279.248 73.387 C 279.090 73.364,278.852 73.197,278.721 73.017 C 278.589 72.837,278.481 72.754,278.481 72.833 C 278.481 72.911,278.348 72.842,278.185 72.679 C 278.022 72.516,277.807 72.433,277.708 72.494 C 277.608 72.556,277.409 72.508,277.264 72.388 C 276.943 72.121,275.279 71.641,274.262 71.522 C 273.849 71.473,273.305 71.389,273.053 71.335 C 272.510 71.217,255.795 71.132,255.681 71.246 M321.709 71.417 C 321.656 71.554,321.613 74.065,321.613 76.996 L 321.613 82.325 325.270 82.325 L 328.926 82.325 328.926 96.965 C 328.926 106.443,328.993 111.729,329.115 111.958 C 329.319 112.337,341.256 112.542,341.823 112.175 C 342.014 112.052,342.061 109.000,342.056 97.177 L 342.049 82.333 345.661 82.283 L 349.273 82.232 349.367 76.840 C 349.443 72.474,349.414 71.448,349.215 71.449 C 349.080 71.449,349.009 71.385,349.057 71.308 C 349.105 71.231,342.992 71.167,335.474 71.167 C 324.264 71.167,321.787 71.212,321.709 71.417 M302.954 72.152 C 302.587 72.887,302.547 72.997,302.508 73.355 C 302.495 73.476,302.435 73.524,302.375 73.464 C 302.264 73.354,301.012 75.649,299.393 78.927 C 298.916 79.895,298.402 80.809,298.253 80.958 C 298.103 81.108,298.029 81.308,298.087 81.403 C 298.146 81.498,298.120 81.575,298.030 81.575 C 297.940 81.575,297.725 81.871,297.553 82.232 C 297.112 83.156,297.503 83.115,299.088 82.072 C 299.770 81.623,301.341 80.600,302.579 79.798 C 303.816 78.997,305.202 78.099,305.658 77.802 C 306.114 77.505,306.663 77.261,306.877 77.259 C 307.197 77.257,307.217 77.224,306.985 77.075 C 306.831 76.975,306.781 76.891,306.874 76.890 C 306.967 76.888,306.904 76.732,306.733 76.544 C 306.562 76.355,306.479 76.144,306.547 76.075 C 306.616 76.006,306.569 75.949,306.443 75.949 C 306.317 75.949,306.265 75.865,306.329 75.762 C 306.393 75.659,306.371 75.574,306.282 75.574 C 306.192 75.574,305.935 75.173,305.710 74.684 C 305.486 74.194,305.092 73.434,304.834 72.996 C 304.577 72.557,304.428 72.196,304.504 72.193 C 304.733 72.182,303.773 71.449,303.530 71.449 C 303.406 71.449,303.147 71.765,302.954 72.152 M269.667 82.513 C 269.667 82.616,269.730 82.684,269.808 82.663 C 270.055 82.598,270.875 82.923,271.214 83.220 C 271.395 83.379,271.542 83.453,271.542 83.384 C 271.542 83.316,271.796 83.502,272.105 83.797 C 272.414 84.093,272.668 84.431,272.668 84.549 C 272.668 84.667,272.745 84.763,272.841 84.763 C 273.121 84.763,273.490 86.091,273.512 87.174 C 273.556 89.460,271.973 91.258,269.603 91.613 L 268.729 91.744 268.729 87.035 L 268.729 82.325 269.198 82.325 C 269.456 82.325,269.667 82.410,269.667 82.513 M309.656 82.856 C 308.969 83.292,304.021 91.221,304.240 91.534 C 304.455 91.841,307.069 94.692,309.897 97.703 C 312.804 100.798,313.737 101.843,313.737 102.004 C 313.737 102.096,310.509 104.256,306.564 106.804 C 302.618 109.351,299.181 111.637,298.926 111.883 L 298.461 112.330 311.703 112.330 L 324.945 112.330 325.057 111.908 C 325.125 111.655,325.069 111.410,324.916 111.296 C 324.777 111.191,324.602 110.833,324.529 110.499 C 324.456 110.165,324.332 109.892,324.253 109.892 C 324.109 109.892,323.734 109.186,323.717 108.882 C 323.712 108.790,323.637 108.664,323.551 108.600 C 323.322 108.433,322.696 107.267,322.834 107.267 C 322.899 107.267,322.819 107.133,322.656 106.970 C 322.493 106.807,322.407 106.596,322.466 106.502 C 322.525 106.407,322.483 106.329,322.374 106.329 C 322.265 106.329,322.187 106.266,322.202 106.188 C 322.253 105.923,321.764 104.829,321.594 104.829 C 321.501 104.829,321.425 104.702,321.425 104.548 C 321.425 104.393,321.341 104.266,321.238 104.266 C 321.135 104.266,321.050 104.143,321.050 103.992 C 321.050 103.840,320.800 103.322,320.493 102.839 C 320.187 102.356,319.976 101.898,320.024 101.821 C 320.071 101.743,319.984 101.632,319.830 101.573 C 319.676 101.514,319.550 101.294,319.550 101.084 C 319.550 100.875,319.461 100.703,319.351 100.703 C 319.242 100.703,319.200 100.626,319.259 100.532 C 319.317 100.437,319.301 100.332,319.223 100.297 C 319.033 100.213,318.236 98.609,318.237 98.312 C 318.237 98.183,318.153 98.078,318.050 98.078 C 317.947 98.078,317.883 97.972,317.909 97.843 C 317.935 97.714,317.850 97.630,317.722 97.656 C 317.521 97.696,317.470 97.562,317.491 97.044 C 317.500 96.807,316.897 95.827,316.741 95.827 C 316.645 95.827,316.511 95.532,316.443 95.171 C 316.376 94.810,316.240 94.515,316.142 94.515 C 316.045 94.515,316.009 94.443,316.063 94.356 C 316.117 94.268,316.017 94.033,315.840 93.833 C 315.663 93.632,315.491 93.345,315.457 93.195 C 315.424 93.044,315.318 92.893,315.223 92.858 C 315.127 92.824,315.049 92.676,315.049 92.530 C 315.049 92.384,314.956 92.264,314.842 92.264 C 314.727 92.264,314.683 92.138,314.742 91.983 C 314.801 91.828,314.775 91.702,314.683 91.702 C 314.591 91.702,314.460 91.443,314.390 91.127 C 314.321 90.810,314.145 90.506,314.000 90.450 C 313.855 90.395,313.737 90.196,313.737 90.010 C 313.737 89.823,313.648 89.641,313.539 89.604 C 313.430 89.568,313.321 89.405,313.298 89.242 C 313.274 89.079,313.107 88.722,312.928 88.448 C 312.749 88.175,312.649 87.951,312.706 87.951 C 312.874 87.951,312.285 86.913,311.967 86.649 C 311.806 86.515,311.674 86.257,311.674 86.076 C 311.674 85.895,311.547 85.642,311.392 85.513 C 311.238 85.385,311.111 85.133,311.111 84.953 C 311.111 84.773,310.935 84.402,310.719 84.128 C 310.375 83.691,310.241 83.367,310.188 82.841 C 310.169 82.660,309.955 82.666,309.656 82.856 M291.698 93.595 C 291.628 93.915,291.431 94.324,291.261 94.503 C 291.091 94.681,290.929 94.929,290.902 95.054 C 290.875 95.179,290.646 95.608,290.394 96.007 C 290.142 96.407,289.883 96.944,289.818 97.200 C 289.754 97.456,289.545 97.834,289.353 98.039 C 289.162 98.245,289.054 98.462,289.114 98.522 C 289.174 98.581,289.019 98.907,288.769 99.245 C 288.520 99.583,288.114 100.302,287.867 100.844 C 287.620 101.385,287.348 101.828,287.263 101.828 C 287.177 101.828,287.107 101.963,287.107 102.128 C 287.107 102.292,286.953 102.651,286.765 102.925 C 286.577 103.198,286.309 103.718,286.170 104.079 C 286.031 104.440,285.757 104.967,285.562 105.251 C 285.366 105.534,285.258 105.767,285.320 105.767 C 285.383 105.767,285.262 105.951,285.052 106.177 C 284.842 106.403,284.669 106.678,284.669 106.788 C 284.669 106.898,284.459 107.385,284.201 107.869 C 283.943 108.354,283.732 108.834,283.732 108.936 C 283.732 109.039,283.521 109.350,283.263 109.629 C 283.005 109.907,282.794 110.275,282.794 110.446 C 282.794 110.618,282.670 110.922,282.519 111.122 C 281.667 112.248,281.840 112.302,286.357 112.323 C 290.040 112.339,290.483 112.309,290.483 112.038 C 290.483 111.871,291.272 110.540,292.235 109.079 C 296.562 102.522,298.048 100.215,298.111 99.953 C 298.174 99.694,293.228 94.121,292.243 93.341 C 291.833 93.017,291.824 93.021,291.698 93.595 " stroke="none" fill="#d3242c" fill-rule="evenodd"></path><path id="path2" d="M57.103 48.036 C 56.045 48.679,54.571 51.126,54.571 52.240 C 54.571 52.387,54.495 52.508,54.402 52.508 C 54.244 52.508,53.788 53.538,52.815 56.090 C 52.595 56.668,52.325 57.259,52.215 57.403 C 52.105 57.547,51.779 58.298,51.489 59.072 C 51.199 59.845,50.724 60.985,50.433 61.603 C 50.142 62.222,49.719 63.235,49.494 63.854 C 49.269 64.473,48.851 65.485,48.565 66.104 C 48.280 66.723,47.815 67.820,47.533 68.542 C 47.251 69.263,46.863 70.148,46.670 70.508 C 46.477 70.868,46.320 71.232,46.320 71.317 C 46.320 71.403,46.109 71.934,45.851 72.498 C 45.593 73.061,45.382 73.585,45.382 73.660 C 45.382 73.736,45.209 74.121,44.998 74.516 C 44.786 74.910,44.718 75.168,44.847 75.089 C 44.976 75.009,44.907 75.191,44.695 75.494 C 44.483 75.796,44.138 76.507,43.927 77.075 C 43.716 77.642,43.210 78.823,42.802 79.700 C 42.395 80.577,42.001 81.505,41.928 81.763 C 41.855 82.021,41.599 82.654,41.360 83.169 C 40.159 85.751,39.653 86.998,39.438 87.904 C 39.383 88.136,39.249 88.326,39.141 88.326 C 39.032 88.326,39.000 88.383,39.069 88.452 C 39.138 88.521,39.076 88.711,38.932 88.874 C 38.788 89.037,38.543 89.550,38.387 90.014 C 38.028 91.085,37.787 91.662,37.008 93.319 C 36.663 94.054,36.381 94.779,36.381 94.932 C 36.381 95.084,36.160 95.622,35.889 96.128 C 35.619 96.633,34.955 98.143,34.413 99.484 C 33.871 100.825,33.295 102.175,33.133 102.485 C 32.971 102.794,32.615 103.638,32.341 104.360 C 32.067 105.082,31.768 105.799,31.677 105.954 C 30.491 107.961,30.489 110.161,31.670 111.370 C 32.339 112.053,36.459 114.018,37.224 114.018 C 37.351 114.018,37.657 114.176,37.903 114.370 C 38.148 114.563,38.729 114.852,39.194 115.012 C 40.401 115.427,41.400 115.836,42.475 116.354 C 43.766 116.975,46.363 118.008,46.648 118.014 C 46.777 118.016,46.882 118.080,46.882 118.155 C 46.882 118.230,47.780 118.643,48.877 119.074 C 49.974 119.504,51.050 119.968,51.268 120.104 C 51.486 120.240,52.002 120.458,52.414 120.587 C 52.827 120.716,53.331 120.937,53.534 121.077 C 53.738 121.217,54.011 121.331,54.140 121.331 C 54.270 121.331,55.116 121.680,56.021 122.105 C 56.925 122.530,58.120 123.036,58.676 123.229 C 59.232 123.422,59.781 123.656,59.895 123.750 C 60.010 123.844,60.863 124.220,61.791 124.586 C 63.841 125.395,66.364 126.498,66.521 126.655 C 66.584 126.718,66.743 126.770,66.874 126.770 C 67.006 126.770,67.857 127.115,68.765 127.537 C 69.674 127.959,70.797 128.433,71.261 128.590 C 71.725 128.747,72.696 129.153,73.418 129.493 C 74.140 129.832,75.363 130.363,76.137 130.672 C 78.497 131.615,81.606 132.942,82.829 133.528 C 83.467 133.833,84.105 134.083,84.245 134.083 C 84.386 134.083,84.583 134.166,84.684 134.267 C 84.785 134.368,85.555 134.581,86.394 134.740 C 87.234 134.899,88.539 135.288,89.296 135.605 C 90.052 135.921,91.068 136.301,91.553 136.449 C 92.039 136.597,92.486 136.799,92.546 136.897 C 92.609 136.998,92.796 137.009,92.976 136.923 C 94.930 135.986,94.795 136.138,95.933 133.615 C 96.683 131.954,97.069 130.967,97.383 129.911 C 97.498 129.524,97.647 129.208,97.713 129.208 C 97.779 129.208,97.982 128.849,98.163 128.411 C 99.005 126.375,99.192 125.894,99.312 125.457 C 99.383 125.199,99.506 124.946,99.586 124.894 C 99.666 124.842,100.081 123.914,100.509 122.831 C 100.936 121.748,101.490 120.441,101.739 119.925 C 102.278 118.811,103.141 116.570,103.141 116.283 C 103.141 116.172,103.214 116.081,103.303 116.081 C 103.392 116.081,103.611 115.680,103.790 115.190 C 103.968 114.700,104.275 113.941,104.472 113.504 C 104.668 113.067,104.829 112.613,104.829 112.495 C 104.829 112.377,104.990 112.017,105.186 111.696 C 105.383 111.374,105.850 110.315,106.224 109.341 C 106.598 108.368,106.974 107.482,107.060 107.372 C 107.145 107.263,107.574 106.245,108.012 105.110 C 108.450 103.976,108.888 102.948,108.986 102.828 C 109.172 102.598,109.685 101.324,110.291 99.587 C 110.487 99.025,110.722 98.519,110.813 98.462 C 110.904 98.406,111.242 97.642,111.566 96.765 C 111.889 95.888,112.357 94.749,112.605 94.233 C 112.854 93.718,113.372 92.494,113.758 91.514 C 114.144 90.534,114.571 89.600,114.707 89.437 C 114.844 89.274,114.955 89.036,114.955 88.909 C 114.955 88.782,115.166 88.216,115.424 87.652 C 115.682 87.089,115.893 86.537,115.893 86.426 C 115.893 86.316,116.096 85.833,116.344 85.353 C 116.592 84.874,116.982 84.018,117.211 83.451 C 117.440 82.883,117.908 81.786,118.250 81.013 C 120.759 75.344,120.585 73.429,117.446 72.197 C 116.850 71.962,115.856 71.535,115.237 71.246 C 114.618 70.958,113.521 70.497,112.799 70.222 C 112.077 69.947,111.165 69.561,110.772 69.364 C 110.379 69.167,109.282 68.704,108.334 68.337 C 107.386 67.969,106.442 67.564,106.235 67.437 C 106.029 67.310,105.143 66.935,104.266 66.603 C 103.390 66.271,102.352 65.828,101.960 65.619 C 101.569 65.410,100.472 64.941,99.522 64.576 C 98.573 64.211,97.099 63.583,96.246 63.180 C 95.393 62.777,94.615 62.447,94.516 62.447 C 94.418 62.447,93.546 62.072,92.577 61.614 C 91.609 61.155,90.573 60.721,90.275 60.650 C 89.977 60.578,89.480 60.387,89.170 60.226 C 88.861 60.064,88.544 59.950,88.467 59.971 C 88.390 59.992,88.326 59.925,88.326 59.822 C 88.326 59.719,88.174 59.634,87.989 59.634 C 87.803 59.634,87.571 59.561,87.473 59.472 C 87.375 59.383,86.662 59.075,85.888 58.789 C 85.115 58.502,84.392 58.198,84.282 58.113 C 84.172 58.028,83.202 57.611,82.126 57.188 C 81.049 56.764,79.564 56.128,78.824 55.775 C 78.084 55.422,77.385 55.134,77.270 55.134 C 77.156 55.134,76.644 54.922,76.132 54.662 C 75.620 54.403,75.158 54.194,75.105 54.197 C 75.051 54.201,74.777 54.084,74.494 53.939 C 74.211 53.793,73.184 53.366,72.210 52.991 C 71.237 52.615,70.351 52.240,70.241 52.156 C 70.132 52.073,69.241 51.691,68.261 51.308 C 67.281 50.925,66.057 50.408,65.541 50.159 C 65.026 49.910,64.035 49.490,63.340 49.227 C 62.645 48.963,61.765 48.564,61.386 48.340 C 60.557 47.851,57.736 47.651,57.103 48.036 M61.116 53.547 C 61.761 53.809,62.429 54.101,62.602 54.196 C 62.775 54.292,63.760 54.720,64.791 55.149 C 69.079 56.930,70.635 57.589,71.167 57.850 C 71.477 58.001,73.376 58.811,75.387 59.650 C 79.057 61.181,81.331 62.143,84.905 63.680 C 85.962 64.134,87.692 64.878,88.749 65.332 C 89.806 65.787,91.725 66.601,93.015 67.142 C 94.304 67.683,96.203 68.483,97.234 68.919 C 98.265 69.355,100.164 70.157,101.453 70.701 C 102.743 71.246,104.473 71.984,105.298 72.343 C 106.123 72.701,107.473 73.270,108.298 73.607 C 109.123 73.943,110.347 74.467,111.017 74.771 C 111.688 75.074,112.722 75.515,113.315 75.751 C 114.607 76.266,114.623 76.361,113.754 78.269 C 113.402 79.040,113.055 79.868,112.983 80.108 C 112.910 80.348,112.563 81.158,112.210 81.908 C 111.858 82.659,111.371 83.798,111.127 84.440 C 110.541 85.983,109.086 89.392,108.284 91.102 C 107.931 91.856,107.642 92.551,107.642 92.649 C 107.642 92.806,107.185 93.890,105.156 98.547 C 104.169 100.812,103.948 101.331,103.521 102.391 C 103.292 102.958,102.829 104.055,102.493 104.829 C 101.378 107.388,100.361 109.777,99.699 111.392 C 99.339 112.269,98.610 113.999,98.078 115.237 C 97.026 117.684,96.129 119.812,94.678 123.301 C 94.163 124.538,93.652 125.715,93.542 125.915 C 93.432 126.115,93.058 126.984,92.710 127.846 C 91.216 131.551,91.255 131.511,89.797 130.829 C 89.246 130.571,87.993 130.027,87.014 129.619 C 86.034 129.211,84.304 128.480,83.169 127.993 C 82.035 127.507,80.136 126.705,78.950 126.210 C 77.764 125.716,75.274 124.662,73.418 123.869 C 71.561 123.076,69.030 122.000,67.792 121.478 C 61.218 118.706,55.550 116.298,53.727 115.503 C 53.315 115.323,51.711 114.651,50.164 114.010 C 48.617 113.370,46.634 112.531,45.757 112.148 C 44.880 111.764,43.657 111.236,43.038 110.975 C 35.289 107.699,35.977 108.172,36.680 106.600 C 36.954 105.987,37.620 104.430,38.159 103.141 C 39.998 98.741,42.397 93.110,42.752 92.358 C 42.947 91.946,43.397 90.891,43.753 90.014 C 44.108 89.137,44.705 87.731,45.078 86.889 C 45.452 86.048,45.757 85.304,45.757 85.237 C 45.757 85.170,45.973 84.658,46.238 84.099 C 46.502 83.541,47.041 82.301,47.435 81.345 C 48.619 78.474,50.516 73.957,51.710 71.167 C 52.328 69.723,53.278 67.487,53.821 66.198 C 54.364 64.909,55.212 62.925,55.705 61.791 C 56.198 60.656,57.165 58.378,57.853 56.728 C 58.872 54.282,59.551 53.071,59.904 53.071 C 59.926 53.071,60.472 53.285,61.116 53.547 M274.440 54.058 C 274.390 54.188,274.372 56.657,274.399 59.543 L 274.450 64.791 274.543 59.306 C 274.595 56.289,274.613 53.821,274.584 53.821 C 274.555 53.821,274.490 53.928,274.440 54.058 M239.934 54.248 C 239.883 54.380,239.865 56.215,239.893 58.327 L 239.945 62.166 240.038 58.087 C 240.129 54.091,240.120 53.762,239.934 54.248 M345.689 56.353 C 345.690 57.693,345.720 58.217,345.756 57.517 C 345.792 56.816,345.792 55.719,345.755 55.079 C 345.719 54.439,345.689 55.012,345.689 56.353 M339.135 59.353 C 339.136 62.241,339.162 63.396,339.193 61.920 C 339.225 60.444,339.225 58.081,339.193 56.669 C 339.161 55.257,339.135 56.465,339.135 59.353 M347.574 59.259 C 347.574 62.096,347.600 63.256,347.632 61.838 C 347.664 60.420,347.664 58.099,347.632 56.681 C 347.600 55.263,347.574 56.423,347.574 59.259 M212.912 57.103 C 212.912 58.031,212.943 58.434,212.983 57.999 C 213.022 57.564,213.023 56.804,212.984 56.311 C 212.945 55.818,212.913 56.174,212.912 57.103 M332.614 55.821 C 332.546 55.890,332.495 56.122,332.501 56.337 C 332.512 56.696,332.528 56.691,332.693 56.278 C 332.877 55.819,332.838 55.597,332.614 55.821 M270.444 57.009 C 270.444 57.164,270.516 57.459,270.605 57.665 C 270.706 57.902,270.766 57.936,270.766 57.759 C 270.766 57.604,270.693 57.309,270.605 57.103 C 270.503 56.866,270.444 56.832,270.444 57.009 M222.301 60.947 C 222.301 62.958,222.328 63.781,222.362 62.775 C 222.396 61.770,222.396 60.124,222.362 59.119 C 222.328 58.113,222.301 58.936,222.301 60.947 M282.658 58.134 C 282.658 58.598,282.694 58.788,282.739 58.556 C 282.784 58.324,282.784 57.944,282.739 57.712 C 282.694 57.480,282.658 57.670,282.658 58.134 M326.900 59.072 C 326.877 60.052,326.815 61.064,326.762 61.322 L 326.665 61.791 326.865 61.335 C 326.976 61.081,327.037 60.087,327.003 59.085 L 326.942 57.290 326.900 59.072 M193.557 57.947 C 193.557 58.101,193.629 58.397,193.718 58.603 C 193.819 58.839,193.879 58.874,193.879 58.697 C 193.879 58.542,193.806 58.247,193.718 58.040 C 193.616 57.804,193.557 57.769,193.557 57.947 M270.819 58.322 C 270.819 58.476,270.891 58.772,270.980 58.978 C 271.081 59.214,271.141 59.249,271.141 59.072 C 271.141 58.917,271.068 58.622,270.980 58.415 C 270.878 58.179,270.819 58.144,270.819 58.322 M282.654 60.291 C 282.656 60.703,282.694 60.850,282.739 60.617 C 282.784 60.383,282.782 60.046,282.736 59.867 C 282.689 59.687,282.652 59.878,282.654 60.291 M212.913 61.510 C 212.913 62.489,212.945 62.890,212.984 62.400 C 213.022 61.910,213.022 61.109,212.984 60.619 C 212.945 60.129,212.913 60.530,212.913 61.510 M336.075 60.384 C 336.072 60.539,336.185 60.919,336.327 61.228 C 336.659 61.953,336.664 61.616,336.334 60.759 C 336.195 60.398,336.078 60.230,336.075 60.384 M345.649 62.389 C 345.631 63.647,345.680 64.715,345.757 64.763 C 345.835 64.811,345.875 64.120,345.848 63.227 C 345.759 60.363,345.683 60.041,345.649 62.389 M227.280 62.270 C 227.166 62.482,227.101 62.739,227.135 62.841 C 227.169 62.943,227.294 62.769,227.413 62.455 C 227.659 61.803,227.585 61.700,227.280 62.270 M257.878 65.097 C 257.864 65.368,258.000 65.705,258.181 65.847 C 258.466 66.071,258.481 66.068,258.293 65.823 C 258.174 65.668,258.037 65.331,257.990 65.073 L 257.904 64.604 257.878 65.097 M155.884 71.203 C 156.064 71.250,156.360 71.250,156.540 71.203 C 156.721 71.156,156.573 71.117,156.212 71.117 C 155.851 71.117,155.703 71.156,155.884 71.203 M175.117 71.214 C 176.800 71.245,179.500 71.245,181.118 71.214 C 182.736 71.183,181.360 71.157,178.059 71.157 C 174.759 71.157,173.435 71.183,175.117 71.214 M209.611 71.211 C 210.049 71.250,210.767 71.250,211.205 71.211 C 211.643 71.171,211.285 71.139,210.408 71.139 C 209.531 71.139,209.173 71.171,209.611 71.211 M233.146 71.214 C 236.317 71.243,241.507 71.243,244.679 71.214 C 247.850 71.185,245.256 71.162,238.912 71.162 C 232.569 71.162,229.974 71.185,233.146 71.214 M260.056 71.214 C 262.248 71.244,265.835 71.244,268.026 71.214 C 270.218 71.184,268.425 71.160,264.041 71.160 C 259.658 71.160,257.865 71.184,260.056 71.214 M328.786 71.214 C 332.473 71.243,338.507 71.243,342.194 71.214 C 345.881 71.186,342.865 71.162,335.490 71.162 C 328.115 71.162,325.098 71.186,328.786 71.214 M226.809 71.496 C 226.760 71.624,226.742 80.802,226.768 91.889 L 226.817 112.049 226.910 91.655 C 226.962 80.438,226.980 71.261,226.951 71.261 C 226.922 71.261,226.858 71.367,226.809 71.496 M171.492 91.702 C 171.492 102.893,171.515 107.471,171.542 101.875 C 171.570 96.280,171.570 87.124,171.542 81.528 C 171.515 75.933,171.492 80.511,171.492 91.702 M349.637 76.793 C 349.637 79.681,349.663 80.836,349.695 79.360 C 349.727 77.884,349.727 75.522,349.695 74.110 C 349.663 72.698,349.637 73.905,349.637 76.793 M342.143 97.046 C 342.143 105.195,342.166 108.501,342.194 104.393 C 342.222 100.285,342.222 93.619,342.194 89.578 C 342.166 85.538,342.143 88.898,342.143 97.046 M287.151 85.701 C 287.151 86.062,287.189 86.210,287.237 86.029 C 287.284 85.849,287.284 85.553,287.237 85.373 C 287.189 85.192,287.151 85.340,287.151 85.701 M287.155 88.608 C 287.157 89.020,287.195 89.167,287.240 88.934 C 287.285 88.700,287.283 88.363,287.236 88.183 C 287.189 88.004,287.153 88.195,287.155 88.608 M275.192 122.316 L 274.262 123.301 275.246 122.370 C 275.788 121.858,276.231 121.415,276.231 121.385 C 276.231 121.245,276.057 121.401,275.192 122.316 M322.781 122.832 C 322.781 123.193,322.820 123.340,322.867 123.160 C 322.914 122.979,322.914 122.684,322.867 122.504 C 322.820 122.323,322.781 122.471,322.781 122.832 M284.525 123.769 C 284.525 124.130,284.564 124.278,284.611 124.098 C 284.658 123.917,284.658 123.622,284.611 123.441 C 284.564 123.261,284.525 123.408,284.525 123.769 M255.201 133.190 C 255.360 133.392,255.411 133.713,255.336 134.034 C 255.247 134.418,255.265 134.479,255.406 134.271 C 255.692 133.849,255.641 133.410,255.274 133.122 C 254.977 132.889,254.970 132.896,255.201 133.190 M284.341 135.900 C 284.522 135.948,284.817 135.948,284.998 135.900 C 285.178 135.853,285.030 135.815,284.669 135.815 C 284.308 135.815,284.161 135.853,284.341 135.900 M360.103 135.900 C 360.284 135.948,360.579 135.948,360.759 135.900 C 360.940 135.853,360.792 135.815,360.431 135.815 C 360.070 135.815,359.923 135.853,360.103 135.900 " stroke="none" fill="#8e1a22" fill-rule="evenodd"></path><path id="path3" d="M59.483 53.399 C 59.274 53.579,58.540 55.077,57.853 56.728 C 57.165 58.378,56.198 60.656,55.705 61.791 C 55.212 62.925,54.364 64.909,53.821 66.198 C 53.278 67.487,52.328 69.723,51.710 71.167 C 50.516 73.957,48.619 78.474,47.435 81.345 C 47.041 82.301,46.502 83.541,46.238 84.099 C 45.973 84.658,45.757 85.170,45.757 85.237 C 45.757 85.304,45.452 86.048,45.078 86.889 C 44.705 87.731,44.108 89.137,43.753 90.014 C 43.397 90.891,42.947 91.946,42.752 92.358 C 42.397 93.110,39.998 98.741,38.159 103.141 C 37.620 104.430,36.954 105.987,36.680 106.600 C 35.977 108.172,35.289 107.699,43.038 110.975 C 43.657 111.236,44.880 111.764,45.757 112.148 C 46.634 112.531,48.617 113.370,50.164 114.010 C 51.711 114.651,53.315 115.323,53.727 115.503 C 55.550 116.298,61.218 118.706,67.792 121.478 C 69.030 122.000,71.561 123.076,73.418 123.869 C 75.274 124.662,77.764 125.716,78.950 126.210 C 80.136 126.705,82.035 127.507,83.169 127.993 C 84.304 128.480,86.034 129.211,87.014 129.619 C 87.993 130.027,89.246 130.571,89.797 130.829 C 91.255 131.511,91.216 131.551,92.710 127.846 C 93.058 126.984,93.432 126.115,93.542 125.915 C 93.652 125.715,94.163 124.538,94.678 123.301 C 96.129 119.812,97.026 117.684,98.078 115.237 C 98.610 113.999,99.339 112.269,99.699 111.392 C 100.361 109.777,101.378 107.388,102.493 104.829 C 102.829 104.055,103.292 102.958,103.521 102.391 C 103.948 101.331,104.169 100.812,105.156 98.547 C 107.185 93.890,107.642 92.806,107.642 92.649 C 107.642 92.551,107.931 91.856,108.284 91.102 C 109.086 89.392,110.541 85.983,111.127 84.440 C 111.371 83.798,111.858 82.659,112.210 81.908 C 112.563 81.158,112.910 80.348,112.983 80.108 C 113.055 79.868,113.402 79.040,113.754 78.269 C 114.650 76.301,114.646 76.286,112.955 75.598 C 111.084 74.836,110.966 74.963,112.801 75.763 C 113.580 76.103,114.191 76.462,114.157 76.562 C 114.106 76.716,109.464 78.636,97.984 83.250 C 81.684 89.801,80.825 90.167,80.825 90.555 C 80.824 90.722,81.194 92.461,81.647 94.421 C 83.401 102.022,84.048 105.044,83.944 105.148 C 83.753 105.339,47.693 107.202,47.520 107.029 C 47.462 106.971,51.324 104.961,56.103 102.562 C 70.194 95.489,70.785 95.176,70.852 94.726 C 70.935 94.178,70.878 94.191,67.947 95.376 C 66.521 95.953,62.780 97.464,59.634 98.733 C 41.696 105.971,37.916 107.503,37.363 107.756 C 36.326 108.231,36.381 107.972,38.253 103.569 C 39.252 101.219,40.728 97.736,41.533 95.827 C 42.338 93.919,43.735 90.628,44.637 88.514 C 47.946 80.757,50.070 75.756,51.844 71.542 C 52.843 69.170,53.772 66.976,53.909 66.667 C 54.046 66.357,54.888 64.374,55.781 62.260 C 56.675 60.145,57.520 58.162,57.660 57.853 C 57.800 57.543,58.225 56.531,58.604 55.602 C 58.984 54.674,59.412 53.792,59.556 53.642 C 59.889 53.296,59.720 53.235,66.854 56.266 C 69.948 57.581,75.307 59.856,78.762 61.322 C 82.218 62.788,85.593 64.224,86.263 64.512 C 86.934 64.801,90.816 66.446,94.890 68.168 C 98.964 69.890,103.141 71.661,104.173 72.105 C 109.076 74.213,111.070 75.022,111.154 74.938 C 111.248 74.844,110.890 74.677,108.298 73.611 C 107.473 73.272,106.123 72.701,105.298 72.343 C 104.473 71.984,102.743 71.246,101.453 70.701 C 100.164 70.157,98.265 69.355,97.234 68.919 C 96.203 68.483,94.304 67.683,93.015 67.142 C 91.725 66.601,89.806 65.787,88.749 65.332 C 87.692 64.878,85.962 64.134,84.905 63.680 C 81.331 62.143,79.057 61.181,75.387 59.650 C 73.376 58.811,71.477 58.001,71.167 57.850 C 70.635 57.589,69.079 56.930,64.791 55.149 C 63.760 54.720,62.775 54.292,62.602 54.196 C 62.314 54.037,59.997 53.071,59.904 53.071 C 59.882 53.071,59.692 53.218,59.483 53.399 M349.367 76.925 C 349.315 79.885,349.338 82.242,349.417 82.163 C 349.496 82.084,349.538 79.662,349.511 76.781 L 349.460 71.542 349.367 76.925 M150.258 112.281 C 150.851 112.318,151.821 112.318,152.414 112.281 C 153.008 112.244,152.522 112.213,151.336 112.213 C 150.150 112.213,149.665 112.244,150.258 112.281 M154.293 112.278 C 154.630 112.320,155.136 112.319,155.418 112.277 C 155.700 112.234,155.424 112.200,154.805 112.201 C 154.187 112.202,153.956 112.237,154.293 112.278 M209.616 112.280 C 210.057 112.320,210.732 112.319,211.116 112.279 C 211.500 112.239,211.139 112.206,210.314 112.207 C 209.489 112.207,209.175 112.240,209.616 112.280 M91.233 136.521 C 91.439 136.610,91.735 136.682,91.889 136.682 C 92.067 136.682,92.032 136.623,91.796 136.521 C 91.589 136.433,91.294 136.360,91.139 136.360 C 90.962 136.360,90.997 136.420,91.233 136.521 " stroke="none" fill="#a41c24" fill-rule="evenodd"></path><path id="path4" d="M203.492 53.821 C 202.125 54.144,201.220 55.322,201.219 56.781 C 201.219 58.441,201.810 59.134,203.657 59.634 C 204.543 59.875,204.808 59.973,205.956 60.488 C 207.145 61.021,207.112 62.430,205.896 63.065 C 205.311 63.371,203.542 63.398,201.688 63.131 C 201.149 63.053,201.505 64.578,202.063 64.735 C 205.719 65.765,208.534 64.353,208.532 61.489 C 208.531 59.676,208.028 59.222,205.140 58.429 C 203.716 58.038,203.094 57.525,203.094 56.743 C 203.094 55.626,203.567 55.415,206.069 55.415 L 208.251 55.415 208.300 54.946 C 208.412 53.864,205.850 53.265,203.492 53.821 M145.288 54.023 C 144.988 54.198,144.960 54.662,144.960 59.453 L 144.960 64.690 145.455 64.815 C 146.716 65.131,146.924 64.814,146.982 62.490 L 147.035 60.384 147.583 60.384 C 148.064 60.384,148.214 60.536,148.828 61.650 C 150.369 64.442,150.765 64.878,151.764 64.882 C 152.569 64.886,152.854 64.500,152.427 63.987 C 152.279 63.811,152.055 63.455,151.929 63.197 C 151.803 62.940,151.411 62.264,151.058 61.697 C 150.706 61.130,150.245 60.355,150.035 59.974 L 149.653 59.283 150.499 57.818 C 150.965 57.012,151.474 56.142,151.630 55.884 C 152.672 54.165,152.646 53.830,151.468 53.824 C 150.755 53.820,150.226 54.437,149.166 56.509 C 147.466 59.830,147.023 59.844,147.023 56.578 C 147.023 53.850,146.616 53.250,145.288 54.023 M154.749 54.046 C 154.370 54.425,154.435 64.206,154.819 64.590 C 155.063 64.834,155.642 64.885,158.171 64.885 C 161.517 64.885,161.732 64.819,161.617 63.818 L 161.556 63.291 159.072 63.239 L 156.587 63.186 156.587 61.504 L 156.587 59.822 158.650 59.822 L 160.713 59.822 160.713 59.259 L 160.713 58.697 158.650 58.697 L 156.587 58.697 156.587 57.108 L 156.587 55.520 159.072 55.467 L 161.556 55.415 161.617 54.888 C 161.732 53.884,161.523 53.821,158.102 53.821 C 155.919 53.821,154.906 53.889,154.749 54.046 M163.183 53.984 C 163.034 54.079,162.959 54.395,162.996 54.778 L 163.057 55.415 164.510 55.470 L 165.963 55.524 165.963 59.910 C 165.963 65.032,166.018 65.192,167.604 64.767 L 168.026 64.654 168.026 60.089 L 168.026 55.524 169.573 55.469 L 171.120 55.415 171.183 54.862 C 171.293 53.900,170.973 53.821,167.006 53.824 C 165.040 53.825,163.320 53.898,163.183 53.984 M173.174 54.058 C 173.124 54.188,173.106 56.657,173.133 59.543 L 173.183 64.791 173.805 64.851 C 174.971 64.963,174.965 64.993,174.965 59.337 C 174.965 54.459,174.947 54.200,174.602 54.015 C 174.101 53.747,173.284 53.772,173.174 54.058 M178.012 53.945 C 177.832 54.018,177.778 55.280,177.778 59.365 L 177.778 64.690 178.247 64.808 C 179.517 65.127,179.653 64.907,179.653 62.537 L 179.653 60.384 180.202 60.384 C 180.716 60.384,181.528 61.088,181.528 61.533 C 181.528 61.712,183.042 64.044,183.491 64.557 C 183.828 64.941,185.057 65.006,185.195 64.647 C 185.296 64.383,184.513 62.647,184.108 62.238 C 183.967 62.095,183.533 61.387,183.144 60.663 L 182.435 59.348 183.083 58.132 C 183.439 57.463,183.998 56.487,184.324 55.965 C 185.120 54.690,185.180 53.936,184.491 53.856 C 183.546 53.747,183.053 54.347,181.130 57.947 C 180.788 58.587,180.556 58.805,180.166 58.850 L 179.653 58.909 179.653 56.559 C 179.653 53.894,179.347 53.406,178.012 53.945 M189.585 53.942 C 189.304 54.019,188.543 56.494,188.066 58.884 C 187.953 59.451,187.793 60.000,187.711 60.103 C 187.628 60.207,187.305 61.244,186.993 62.410 L 186.426 64.528 186.870 64.730 C 187.767 65.139,188.206 64.816,188.567 63.480 L 188.898 62.260 190.933 62.260 L 192.968 62.260 192.968 62.739 C 192.968 64.219,193.985 65.203,195.081 64.782 C 195.355 64.677,194.726 61.895,193.451 57.571 C 193.193 56.695,192.926 55.617,192.859 55.176 C 192.676 53.979,191.327 53.471,189.585 53.942 M211.205 53.945 C 210.811 54.104,210.871 64.619,211.267 64.771 C 211.430 64.834,212.849 64.885,214.419 64.885 C 217.615 64.885,217.984 64.774,217.878 63.844 L 217.815 63.291 215.331 63.239 L 212.846 63.186 212.846 61.510 L 212.846 59.834 214.955 59.781 L 217.065 59.728 217.125 59.212 L 217.184 58.697 215.015 58.697 L 212.846 58.697 212.846 57.103 L 212.846 55.509 215.377 55.509 L 217.909 55.509 217.909 54.779 C 217.909 54.286,217.813 54.012,217.612 53.935 C 217.260 53.799,211.543 53.809,211.205 53.945 M220.766 53.977 C 220.582 54.094,220.540 55.319,220.578 59.457 C 220.633 65.315,220.586 65.101,221.768 64.804 L 222.222 64.690 222.236 60.990 L 222.250 57.290 222.609 58.322 C 222.806 58.889,223.131 59.733,223.330 60.197 C 223.530 60.661,223.911 61.770,224.177 62.662 C 224.675 64.334,224.828 64.510,225.787 64.510 C 226.477 64.510,226.834 64.139,226.995 63.253 C 227.067 62.862,227.231 62.372,227.361 62.166 C 227.571 61.830,228.087 60.381,228.862 57.947 C 229.116 57.152,229.132 57.322,229.146 60.880 C 229.162 64.963,229.142 64.885,230.194 64.885 C 231.191 64.885,231.224 64.711,231.224 59.313 C 231.224 53.633,231.282 53.835,229.630 53.830 C 228.381 53.826,228.348 53.858,227.749 55.696 C 227.464 56.573,227.181 57.375,227.120 57.478 C 227.059 57.581,227.009 57.711,227.007 57.766 C 227.006 57.822,226.711 58.727,226.354 59.777 L 225.703 61.687 224.511 58.082 C 223.755 55.795,223.180 54.357,222.938 54.149 C 222.539 53.807,221.201 53.701,220.766 53.977 M234.177 53.950 C 233.797 54.050,233.676 61.565,234.035 62.816 C 234.792 65.455,240.091 65.793,241.488 63.291 C 242.096 62.203,242.148 54.335,241.550 54.015 C 240.147 53.264,240.055 53.530,239.992 58.535 L 239.944 62.406 239.475 62.795 C 238.471 63.630,236.451 63.465,236.091 62.519 C 235.992 62.260,235.912 60.284,235.912 58.128 C 235.912 53.629,235.863 53.510,234.177 53.950 M246.752 54.055 C 246.589 54.184,246.396 54.627,246.324 55.040 C 246.252 55.452,246.128 55.874,246.050 55.977 C 245.904 56.170,245.160 58.892,244.616 61.228 C 244.448 61.950,244.205 62.752,244.076 63.010 C 243.557 64.047,243.566 64.682,244.101 64.816 C 245.009 65.044,245.532 64.693,245.819 63.664 C 246.208 62.272,246.229 62.260,248.282 62.260 L 250.104 62.260 250.357 63.313 C 250.706 64.767,251.781 65.394,252.571 64.604 C 252.699 64.476,252.068 61.885,251.838 61.596 C 251.753 61.488,251.633 61.112,251.571 60.760 C 251.508 60.407,251.287 59.482,251.079 58.704 C 250.870 57.927,250.531 56.657,250.324 55.884 C 250.106 55.068,249.788 54.339,249.567 54.149 C 249.109 53.756,247.210 53.693,246.752 54.055 M259.972 53.970 C 259.808 54.074,259.731 55.461,259.690 59.037 C 259.629 64.392,259.646 64.314,258.556 64.320 C 258.004 64.323,257.785 65.305,258.236 65.756 C 258.778 66.298,261.097 65.444,261.424 64.582 C 261.699 63.860,261.657 54.325,261.378 54.046 C 261.127 53.794,260.317 53.750,259.972 53.970 M266.521 54.113 C 266.292 54.273,266.103 54.590,266.102 54.816 C 266.101 55.042,265.799 56.282,265.430 57.571 C 263.352 64.828,263.345 64.875,264.382 64.882 C 265.177 64.888,265.513 64.542,265.838 63.383 L 266.154 62.260 268.005 62.260 L 269.856 62.260 270.082 63.104 C 270.206 63.568,270.374 63.947,270.456 63.947 C 270.538 63.947,270.605 64.107,270.605 64.302 C 270.605 64.684,270.954 64.887,271.605 64.882 C 272.454 64.876,272.507 64.684,272.094 63.092 C 270.876 58.395,269.618 54.265,269.342 54.055 C 268.899 53.719,267.029 53.757,266.521 54.113 M274.682 53.932 C 274.370 54.244,274.522 64.649,274.840 64.771 C 275.339 64.963,279.092 64.896,279.864 64.681 C 283.299 63.728,283.850 55.970,280.597 54.362 C 279.682 53.911,275.041 53.573,274.682 53.932 M285.457 54.046 C 285.293 54.210,285.232 55.650,285.232 59.353 C 285.232 65.100,285.305 65.349,286.811 64.771 C 287.316 64.577,287.253 54.287,286.745 54.015 C 286.262 53.757,285.734 53.769,285.457 54.046 M294.562 54.023 C 294.262 54.198,294.233 54.656,294.233 59.325 C 294.233 64.806,294.247 64.885,295.193 64.885 C 296.321 64.885,296.294 64.976,296.318 61.068 C 296.330 59.093,296.378 57.625,296.426 57.806 C 296.473 57.986,296.576 58.134,296.655 58.134 C 296.734 58.134,296.899 58.579,297.020 59.122 C 297.142 59.666,297.600 61.079,298.038 62.263 L 298.834 64.416 299.591 64.472 C 300.136 64.512,300.430 64.434,300.643 64.191 C 300.917 63.877,302.110 60.592,302.110 60.150 C 302.110 60.041,302.310 59.522,302.554 58.996 C 302.799 58.470,303.045 57.914,303.102 57.759 C 303.159 57.604,303.212 59.093,303.220 61.068 C 303.236 64.945,303.220 64.885,304.268 64.885 C 305.267 64.885,305.298 64.717,305.298 59.241 L 305.298 54.187 304.817 54.004 C 303.823 53.626,301.912 53.911,302.209 54.393 C 302.270 54.491,302.237 54.571,302.136 54.571 C 302.035 54.571,301.896 54.845,301.828 55.180 C 301.712 55.751,300.548 59.431,299.992 60.988 L 299.743 61.684 298.477 57.865 C 297.095 53.693,297.186 53.823,295.640 53.829 C 295.227 53.831,294.742 53.918,294.562 54.023 M308.189 54.076 C 307.867 54.914,308.213 63.183,308.592 63.700 C 310.003 65.629,314.042 65.441,315.388 63.384 L 315.987 62.470 315.987 58.339 C 315.987 53.767,315.971 53.711,314.712 53.856 L 314.205 53.915 314.112 58.059 C 314.011 62.514,313.995 62.582,312.962 63.116 C 310.569 64.354,309.798 63.089,309.798 57.925 C 309.798 54.443,309.776 54.197,309.436 54.015 C 308.928 53.743,308.305 53.773,308.189 54.076 M318.940 54.016 C 318.640 54.197,318.612 54.665,318.612 59.453 L 318.612 64.690 319.077 64.807 C 320.169 65.081,324.116 64.793,324.896 64.382 C 327.630 62.943,327.621 55.759,324.884 54.388 C 323.845 53.867,319.621 53.602,318.940 54.016 M331.373 54.092 C 331.250 54.240,331.026 54.889,330.875 55.533 C 330.725 56.177,330.530 56.793,330.441 56.903 C 330.259 57.128,329.738 59.020,329.106 61.751 C 328.873 62.760,328.610 63.630,328.523 63.684 C 328.151 63.914,328.365 64.691,328.833 64.808 C 329.818 65.056,330.151 64.795,330.526 63.483 L 330.876 62.260 332.785 62.260 L 334.693 62.260 335.043 63.480 C 335.426 64.820,335.659 65.001,336.735 64.799 C 337.230 64.706,337.362 64.602,337.289 64.359 C 337.237 64.184,337.094 63.619,336.971 63.104 C 336.848 62.588,336.633 61.937,336.493 61.658 C 336.353 61.378,336.111 60.534,335.955 59.782 C 335.471 57.443,334.513 54.301,334.209 54.055 C 333.794 53.721,331.658 53.748,331.373 54.092 M339.475 53.945 C 339.295 54.018,339.241 55.280,339.241 59.365 L 339.241 64.690 339.709 64.808 C 340.990 65.130,341.116 64.919,341.116 62.444 L 341.116 60.197 343.454 60.197 L 345.792 60.197 345.845 62.492 C 345.902 64.987,345.949 65.078,347.038 64.804 L 347.492 64.690 347.492 59.353 L 347.492 54.016 347.038 53.902 C 345.943 53.627,345.902 53.710,345.845 56.308 L 345.793 58.697 343.454 58.697 L 341.116 58.697 341.116 56.484 C 341.116 53.889,340.805 53.408,339.475 53.945 M191.719 58.018 C 192.096 59.398,192.405 60.580,192.405 60.644 C 192.405 60.707,191.730 60.759,190.905 60.759 C 189.978 60.759,189.405 60.684,189.405 60.562 C 189.405 60.453,189.609 59.630,189.858 58.733 C 190.108 57.836,190.406 56.744,190.522 56.306 C 190.839 55.101,190.973 55.293,191.719 58.018 M248.926 58.059 C 249.298 59.410,249.602 60.570,249.602 60.637 C 249.602 60.704,248.969 60.759,248.195 60.759 C 247.048 60.759,246.789 60.706,246.789 60.468 C 246.789 59.966,248.085 55.426,248.195 55.543 C 248.226 55.576,248.555 56.708,248.926 58.059 M268.684 57.665 C 268.990 58.594,269.289 59.669,269.348 60.056 L 269.456 60.759 267.953 60.759 L 266.449 60.759 266.578 60.150 C 266.648 59.815,266.772 59.471,266.851 59.385 C 266.931 59.299,267.197 58.400,267.441 57.386 C 267.686 56.371,267.940 55.640,268.007 55.760 C 268.073 55.879,268.378 56.737,268.684 57.665 M279.589 55.781 C 280.405 56.203,280.639 57.011,280.624 59.353 C 280.603 62.516,280.083 63.195,277.684 63.197 L 276.418 63.197 276.418 59.353 L 276.418 55.509 277.740 55.509 C 278.529 55.509,279.275 55.618,279.589 55.781 M323.785 55.737 C 325.375 56.462,325.447 61.439,323.886 62.775 C 323.475 63.127,323.172 63.196,322.035 63.196 L 320.675 63.197 320.675 59.353 L 320.675 55.509 321.979 55.509 C 322.696 55.509,323.509 55.612,323.785 55.737 M333.449 57.690 C 333.761 58.811,334.094 59.808,334.190 59.906 C 334.779 60.506,334.385 60.759,332.865 60.759 C 331.120 60.759,331.195 60.941,331.907 58.443 C 332.205 57.397,332.504 56.298,332.572 56.002 C 332.743 55.255,332.808 55.380,333.449 57.690 M80.622 90.373 C 80.526 90.631,80.802 92.011,81.235 93.437 C 81.614 94.687,81.606 94.041,81.223 92.521 C 81.019 91.709,80.823 90.835,80.787 90.577 C 80.747 90.290,80.683 90.211,80.622 90.373 M305.204 92.827 C 305.607 93.240,305.979 93.577,306.030 93.577 C 306.082 93.577,305.794 93.240,305.391 92.827 C 304.989 92.414,304.617 92.077,304.565 92.077 C 304.514 92.077,304.801 92.414,305.204 92.827 M78.530 105.524 C 78.763 105.569,79.101 105.567,79.280 105.520 C 79.459 105.473,79.269 105.437,78.856 105.439 C 78.444 105.441,78.297 105.479,78.530 105.524 M74.211 105.714 C 74.543 105.756,75.134 105.756,75.523 105.716 C 75.912 105.675,75.640 105.641,74.918 105.641 C 74.196 105.640,73.878 105.673,74.211 105.714 M68.683 106.083 C 68.863 106.130,69.158 106.130,69.339 106.083 C 69.519 106.036,69.372 105.998,69.011 105.998 C 68.650 105.998,68.502 106.036,68.683 106.083 M64.182 106.278 C 64.569 106.319,65.202 106.319,65.588 106.278 C 65.975 106.238,65.659 106.205,64.885 106.205 C 64.112 106.205,63.795 106.238,64.182 106.278 M60.619 106.466 C 61.006 106.506,61.639 106.506,62.025 106.466 C 62.412 106.425,62.096 106.392,61.322 106.392 C 60.549 106.392,60.232 106.425,60.619 106.466 M285.932 119.181 C 283.762 119.613,282.107 120.969,281.904 122.481 C 281.850 122.885,281.733 123.261,281.644 123.316 C 281.429 123.449,281.437 124.068,281.659 124.475 C 281.756 124.654,281.885 125.110,281.945 125.487 C 282.124 126.607,284.334 128.250,286.048 128.538 C 290.155 129.225,291.446 131.600,288.473 132.997 C 286.837 133.766,284.865 133.532,282.251 132.257 L 280.863 131.580 280.522 132.001 C 279.754 132.950,279.846 134.069,280.731 134.551 C 282.865 135.712,285.098 136.115,287.670 135.804 C 293.866 135.055,295.077 128.233,289.290 126.684 C 284.981 125.530,283.798 124.517,284.793 122.831 C 285.722 121.259,288.853 120.892,291.364 122.062 C 292.890 122.773,293.017 122.736,293.563 121.430 C 293.961 120.477,293.958 120.464,293.155 119.940 C 291.767 119.032,288.438 118.683,285.932 119.181 M361.787 119.102 C 355.901 120.082,355.489 126.833,361.221 128.388 C 365.567 129.567,366.601 130.586,365.141 132.249 C 364.264 133.247,360.709 133.873,359.991 133.155 C 359.882 133.047,359.648 132.958,359.470 132.958 C 359.292 132.958,358.574 132.660,357.876 132.296 C 356.388 131.521,356.253 131.545,355.703 132.679 C 355.202 133.708,355.318 133.995,356.468 134.585 C 356.906 134.809,357.364 135.068,357.488 135.161 C 358.308 135.780,362.435 136.098,364.233 135.680 C 369.790 134.388,370.170 128.103,364.778 126.661 C 360.293 125.461,359.115 124.292,360.639 122.556 C 361.867 121.158,364.553 120.969,367.024 122.108 C 368.507 122.792,368.589 122.763,369.132 121.355 C 369.814 119.585,365.969 118.406,361.787 119.102 M245.232 119.409 C 245.187 119.590,245.140 119.966,245.128 120.245 C 245.116 120.524,245.095 120.819,245.081 120.901 C 244.979 121.510,245.068 121.519,250.993 121.519 L 256.885 121.519 256.981 121.003 C 257.034 120.720,257.129 120.171,257.192 119.784 L 257.307 119.081 251.310 119.081 C 245.755 119.081,245.308 119.105,245.232 119.409 M263.768 120.159 C 263.706 120.752,263.484 122.293,263.275 123.582 C 263.066 124.871,262.862 126.137,262.822 126.395 C 261.968 131.838,261.617 134.452,261.607 135.443 C 261.604 135.725,261.790 135.771,262.922 135.771 C 264.449 135.771,264.310 135.961,264.693 133.345 C 264.965 131.488,265.013 131.359,265.625 130.855 C 265.979 130.563,266.633 129.990,267.078 129.583 C 268.130 128.619,268.098 128.608,269.255 130.292 C 270.630 132.292,271.637 133.704,272.145 134.341 C 272.381 134.638,272.699 135.081,272.852 135.326 C 273.103 135.729,273.261 135.771,274.498 135.771 C 276.588 135.771,276.614 135.885,273.493 131.511 C 273.035 130.870,272.451 130.119,272.195 129.843 C 271.939 129.566,271.730 129.256,271.730 129.152 C 271.730 129.049,271.354 128.507,270.894 127.949 L 270.058 126.934 273.285 124.011 C 279.277 118.582,278.943 119.081,276.584 119.081 L 274.874 119.081 273.537 120.242 C 272.801 120.881,272.021 121.577,271.805 121.789 C 271.588 122.002,270.745 122.766,269.932 123.488 C 269.119 124.210,268.216 125.031,267.925 125.312 C 267.634 125.594,267.021 126.131,266.563 126.507 L 265.729 127.190 265.729 126.711 C 265.729 126.448,265.897 125.235,266.103 124.016 C 266.309 122.797,266.478 121.416,266.478 120.947 C 266.479 120.478,266.575 119.998,266.692 119.881 C 267.211 119.362,266.715 119.081,265.280 119.081 L 263.881 119.081 263.768 120.159 M300.967 119.106 C 300.523 120.808,299.830 125.194,298.898 132.208 C 298.795 132.982,298.624 133.893,298.517 134.234 C 298.134 135.458,298.388 135.771,299.763 135.771 C 301.242 135.771,301.221 135.802,301.651 133.000 L 301.974 130.895 304.433 130.892 C 310.777 130.884,313.425 129.008,313.426 124.519 C 313.427 121.939,312.585 120.578,310.371 119.580 C 309.598 119.232,301.046 118.801,300.967 119.106 M320.129 120.722 C 320.014 121.624,319.748 123.418,319.539 124.707 C 319.329 125.996,319.127 127.304,319.089 127.614 C 319.051 127.923,318.802 129.537,318.535 131.201 C 318.268 132.865,318.050 134.574,318.050 134.999 L 318.050 135.771 319.351 135.771 C 320.894 135.771,320.765 135.927,321.149 133.603 C 321.318 132.578,321.485 131.613,321.520 131.458 C 321.555 131.303,321.591 131.113,321.598 131.036 C 321.606 130.959,322.575 130.895,323.751 130.895 L 325.889 130.895 326.968 132.724 C 328.767 135.775,328.763 135.771,330.046 135.771 C 331.999 135.771,332.092 135.599,331.016 133.964 C 330.106 132.581,328.893 130.489,328.965 130.426 C 328.996 130.400,329.358 130.207,329.770 129.997 C 334.940 127.366,334.145 120.074,328.601 119.272 C 327.903 119.171,325.759 119.087,323.836 119.085 L 320.339 119.081 320.129 120.722 M340.295 119.409 C 340.243 119.590,340.143 120.140,340.073 120.631 L 339.947 121.524 345.902 121.475 L 351.857 121.425 352.070 120.581 C 352.476 118.969,352.907 119.081,346.272 119.081 C 340.832 119.081,340.384 119.106,340.295 119.409 M308.069 121.715 C 309.789 122.084,310.947 123.579,310.634 125.028 C 310.091 127.549,308.848 128.249,304.896 128.262 L 302.337 128.270 302.492 127.567 C 302.577 127.180,302.778 125.893,302.938 124.707 C 303.098 123.521,303.266 122.382,303.311 122.175 C 303.357 121.969,303.400 121.737,303.408 121.660 C 303.430 121.448,307.023 121.491,308.069 121.715 M328.551 121.978 C 331.025 123.243,330.442 127.213,327.660 128.047 C 326.170 128.493,321.930 128.343,322.045 127.848 C 322.150 127.397,322.662 123.903,322.845 122.386 L 322.956 121.471 325.425 121.557 C 327.300 121.622,328.053 121.724,328.551 121.978 M244.186 126.723 C 244.087 127.110,243.910 128.059,243.793 128.833 C 243.675 129.606,243.462 130.914,243.319 131.739 C 243.176 132.564,243.034 133.788,243.002 134.459 L 242.944 135.677 248.988 135.727 L 255.031 135.776 255.129 135.352 C 255.183 135.118,255.248 134.548,255.274 134.083 L 255.321 133.240 250.751 133.189 L 246.180 133.139 246.300 132.543 C 246.365 132.215,246.464 131.478,246.520 130.905 C 246.575 130.333,246.662 129.590,246.713 129.255 L 246.806 128.645 250.595 128.642 C 252.678 128.641,254.491 128.571,254.622 128.488 C 254.798 128.376,255.211 126.720,255.226 126.067 C 255.227 126.041,252.783 126.020,249.796 126.020 L 244.365 126.020 244.186 126.723 M339.173 126.348 C 339.122 126.528,339.024 127.225,338.957 127.895 C 338.889 128.565,338.677 130.127,338.486 131.364 C 338.294 132.602,338.112 134.079,338.080 134.646 L 338.022 135.677 344.010 135.677 L 349.999 135.677 350.241 134.740 C 350.673 133.065,350.898 133.146,345.802 133.146 C 343.340 133.146,341.291 133.083,341.250 133.005 C 341.185 132.884,341.538 130.287,341.784 129.078 C 341.867 128.672,341.924 128.665,345.812 128.609 C 350.282 128.544,350.110 128.608,350.114 127.004 L 350.117 126.020 344.691 126.020 C 339.685 126.020,339.259 126.045,339.173 126.348 M61.556 133.650 C 61.737 133.697,62.032 133.697,62.213 133.650 C 62.393 133.603,62.246 133.564,61.885 133.564 C 61.524 133.564,61.376 133.603,61.556 133.650 M87.389 135.068 C 87.539 135.238,90.795 136.553,90.873 136.475 C 90.912 136.436,90.292 136.139,89.494 135.815 C 87.692 135.082,87.269 134.933,87.389 135.068 M44.775 139.467 C 45.008 139.512,45.346 139.510,45.525 139.463 C 45.704 139.416,45.513 139.379,45.101 139.382 C 44.688 139.384,44.542 139.422,44.775 139.467 M78.247 139.469 C 78.530 139.512,78.994 139.512,79.278 139.469 C 79.562 139.426,79.330 139.390,78.762 139.390 C 78.195 139.390,77.963 139.426,78.247 139.469 " stroke="none" fill="#989494" fill-rule="evenodd"></path></g></svg>